<?xml version="1.0" encoding="UTF-8"?>
<svg width="24px" height="24px" viewBox="0 0 24 24" version="1.1" xmlns="http://www.w3.org/2000/svg">
    <g id="/hockey/" stroke="none" stroke-width="1" fill="none" fill-rule="evenodd">
        <polygon id="Fill-1" points="0 24 23.999 24 23.999 0 0 0"></polygon>
        <path d="M20.7,13.121 C19.589,14.543 17.717,16.057 15.286,17.497 C14.443,17.996 13.566,18.459 12.692,18.861 L10.312,14.847 C11.141,14.451 12.005,13.991 12.895,13.463 C16.926,11.074 19.331,8.71 19.909,6.665 L21.506,9.358 C22.116,10.39 21.846,11.655 20.7,13.121 M5.16,19.046 L3.558,16.344 C3.883,16.418 4.248,16.464 4.666,16.464 C5.104,16.464 5.597,16.417 6.152,16.31 L8.454,20.194 C6.972,20.367 5.769,20.073 5.16,19.046 M9.397,15.262 L11.768,19.263 C10.988,19.58 10.225,19.835 9.503,20.005 L7.168,16.063 C7.866,15.866 8.61,15.6 9.397,15.262 M3.371,10.931 C4.513,9.552 6.403,8.059 8.838,6.616 C12.02,4.73 14.713,3.753 16.541,3.753 C17.608,3.753 18.382,4.086 18.784,4.767 C19.878,6.613 17.427,9.616 12.386,12.603 C9.951,14.046 7.735,14.988 5.976,15.327 C4.18,15.675 2.988,15.379 2.438,14.453 C1.889,13.527 2.204,12.343 3.371,10.931 M22.365,8.849 L19.645,4.257 L19.644,4.257 C18.194,1.808 14.069,2.354 8.328,5.757 C5.796,7.257 3.815,8.826 2.6,10.294 C0.775,12.5 1.038,14.051 1.579,14.963 L4.301,19.556 C4.965,20.677 6.14,21.231 7.717,21.231 C9.798,21.231 12.577,20.264 15.796,18.356 C18.333,16.853 20.301,15.256 21.488,13.736 C23.263,11.467 22.944,9.825 22.365,8.849" id="Fill-2" fill="#FFFFFF"></path>
    </g>
</svg>
